<?xml version="1.0" encoding="UTF-8"?><!DOCTYPE svg PUBLIC "-//W3C//DTD SVG 1.1//EN" "http://www.w3.org/Graphics/SVG/1.1/DTD/svg11.dtd"><svg xmlns="http://www.w3.org/2000/svg" xmlns:xlink="http://www.w3.org/1999/xlink"><symbol id="icon-calendar" viewBox="0 0 26 26"><style>g {}</style>
    <path d="M25.5 26H.5V0h25v26zm-23-2h21V2h-21v22z"/>
    <path d="M.5 7h25v2H.5z"/>
    <path d="M5.5 12h3v3h-3z"/>
    <path d="M5.5 18h3v3h-3z"/>
    <path d="M11.5 12h3v3h-3z"/>
    <path d="M11.5 18h3v3h-3z"/>
    <path d="M17.5 12h3v3h-3z"/>
    <path d="M17.5 18h3v3h-3z"/>
</symbol><symbol id="icon-camera" viewBox="0 0 30 30">
    <path d="M25 27.5H5c-2.8 0-5-2.2-5-5V11.6c0-2.8 2.2-5 5-5h2.5l1.9-3.2c.4-.6 1-1 1.7-1h7.7c.7 0 1.3.4 1.7 1l1.9 3.2H25c2.8 0 5 2.2 5 5v10.9c0 2.8-2.2 5-5 5zM5 8.6c-1.7 0-3 1.3-3 3v10.9c0 1.7 1.3 3 3 3h20c1.7 0 3-1.3 3-3V11.6c0-1.7-1.3-3-3-3h-3.6l-2.5-4.1h-7.7L8.6 8.6H5z"/>
    <path d="M15 22.6c-3.4 0-6.1-2.8-6.1-6.2s2.7-6.2 6.1-6.2c3.4 0 6.1 2.8 6.1 6.2s-2.7 6.2-6.1 6.2zm0-10.4c-2.2 0-4.1 1.9-4.1 4.2 0 2.3 1.8 4.2 4.1 4.2 2.2 0 4.1-1.9 4.1-4.2 0-2.3-1.9-4.2-4.1-4.2z"/>
</symbol><symbol id="icon-check-1" viewBox="0 0 28 28">
    <path d="M9.8 23.8c-.4 0-.8-.1-1.1-.4L.4 15.1c-.6-.6-.6-1.5 0-2.1s1.5-.6 2.1 0l7.3 7.3L25.4 4.6c.6-.6 1.6-.6 2.2 0 .6.6.6 1.5 0 2.1L10.9 23.4c-.3.3-.7.4-1.1.4z"/>
</symbol><symbol id="icon-check-circle" viewBox="0 0 20 20">
    <path d="M10 20C4.5 20 0 15.5 0 10S4.5 0 10 0s10 4.5 10 10-4.5 10-10 10zm0-18c-4.4 0-8 3.6-8 8s3.6 8 8 8 8-3.6 8-8-3.6-8-8-8z"/>
    <path d="M9 13c-.3 0-.5-.1-.7-.3l-2-2c-.4-.4-.4-1 0-1.4s1-.4 1.4 0L9 10.6l3.3-3.3c.4-.4 1-.4 1.4 0s.4 1 0 1.4l-4 4c-.2.2-.4.3-.7.3z"/>
</symbol><symbol id="icon-check-double" viewBox="0 0 594.149 594.149">
    <path d="M448.8 161.925l-35.7-35.7-160.65 160.65 35.7 35.7 160.65-160.65zm107.099-35.7l-267.75 270.3-107.1-107.1-35.7 35.7 142.8 142.8 306-306-38.25-35.7zM0 325.125l142.8 142.8 35.7-35.7-142.8-142.8-35.7 35.7z"/>
</symbol><symbol id="icon-check" viewBox="0 0 448.8 448.8">
    <path d="M142.8 323.85L35.7 216.75 0 252.45l142.8 142.8 306-306-35.7-35.7z"/>
</symbol><symbol id="icon-chevron-left" viewBox="0 0 10 10">
    <path d="M2 5c0-.3.1-.5.3-.7l4-4c.4-.4 1-.4 1.4 0 .4.4.4 1 0 1.4L4.4 5l3.3 3.3c.4.4.4 1 0 1.4-.4.4-1 .4-1.4 0l-4-4C2.1 5.5 2 5.3 2 5z"/>
</symbol><symbol id="icon-chevron-right" viewBox="0 0 10 10">
    <path d="M8 5c0 .3-.1.5-.3.7l-4 4c-.4.4-1 .4-1.4 0s-.4-1 0-1.4L5.6 5 2.3 1.7c-.4-.4-.4-1 0-1.4s1-.4 1.4 0l4 4c.2.2.3.4.3.7z"/>
</symbol><symbol id="icon-clip" viewBox="0 0 913.9 913.9">
    <path d="M849.4 248.6c-2.8-69-32.3-132.9-83.1-179.8-24-22.1-51.3-39.3-81.2-51.1C655.201 6 623.601 0 591.101 0c-3.5 0-7.1.1-10.6.2-69 2.8-132.8 32.3-179.8 83.2l-290.9 313.9c-9.3 10.101-8.8 25.801 1.2 35.2l20.2 19c10.1 9.5 26 9 35.5-1.2l291.1-314.1c33.2-36 81.9-56.7 133.5-56.7 46.4 0 89.9 16.5 122.3 46.5 35.5 32.8 56.2 77.4 58.101 125.8 1.899 48.3-14.9 94.3-47.5 129.6l-395.4 422.1c-19.8 21.4-48.7 33.7-79.4 33.7-27.6 0-53.5-9.8-72.8-27.7-21.1-19.5-33.3-46-34.6-74.8-1.2-28.7 8.8-56.1 28.1-77 0 0 368-392.7 368.601-393.2 32.199-33.4 82.699 15.2 50.5 48.6-54.7 56.7-195.2 208.4-264 282.9-9.301 10.101-8.801 25.8 1.199 35.2l20.2 19c10.101 9.5 26 9 35.5-1.2l264.9-285.6c41.899-45.4 39.1-116.5-6.4-158.5-20.7-19.1-47.8-29.7-76.1-29.7-15.3 0-30.101 3-44.101 9-14.399 6.1-27.199 15.1-37.8 26.7l-369.3 393.8c-69.3 75.1-64.5 192.6 10.6 262 33 30.5 77.5 47.2 125.3 47.2 53.1 0 102.8-20.9 136.4-57.3l395.4-422.101c46.8-50.799 71.1-116.799 68.399-185.899z"/>
</symbol><symbol id="icon-close-1" viewBox="0 0 30 30">
    <path d="M5 26.5c-.4 0-.8-.1-1.1-.4-.6-.6-.6-1.5 0-2.1l20-20c.6-.6 1.5-.6 2.1 0s.6 1.5 0 2.1l-20 20c-.2.3-.6.4-1 .4z"/>
    <path d="M25 26.5c-.4 0-.8-.1-1.1-.4l-20-20c-.5-.6-.5-1.6 0-2.2.6-.5 1.6-.5 2.2 0l20 20c.6.6.6 1.5 0 2.1-.3.4-.7.5-1.1.5z"/>
</symbol><symbol id="icon-close" viewBox="0 0 21.4 21.4">
    <path d="M10.7 12.1L0 1.4 1.4 0l9.3 9.3L20 0l1.4 1.4z"/>
    <path d="M20 21.4l-9.3-9.3-9.3 9.3L0 20 10.7 9.3 21.4 20z"/>
</symbol><symbol id="icon-cloud-upload" viewBox="0 0 35.7 28.8">
    <path d="M28.8 23.8h-1.7c-.6 0-1-.4-1-1s.4-1 1-1h1.7c1.3 0 2.5-.5 3.4-1.4.9-.9 1.4-2.1 1.4-3.4 0-1.3-.5-2.5-1.4-3.4-.9-.9-2.1-1.4-3.4-1.4h-1.7c-.3 0-.6-.1-.8-.4-.2-.2-.3-.5-.2-.8.2-.9.2-1.9 0-2.9s-.6-1.8-1.2-2.7c-.6-.8-1.4-1.5-2.3-2.1-.9-.6-1.9-.9-3-1.1-1.1-.2-2.2-.2-3.3 0-1.1.2-2.1.6-3 1.1-1.8 1.1-3 2.7-3.5 4.7-.1.5-.5.8-1 .8-1.8 0-3.5.7-4.8 1.9-1.3 1.2-2 2.9-2 4.6 0 1.7.7 3.4 2 4.6 1.3 1.2 3 1.9 4.9 1.9.6 0 1 .4 1 1s-.4 1-1 1c-2.4 0-4.6-.9-6.2-2.5C1 19.7.1 17.6.1 15.3c0-2.2.9-4.4 2.6-6C4.1 7.8 6 7 8.1 6.8c.7-2.1 2.2-4 4.3-5.2C13.5.9 14.8.5 16.1.2c1.3-.2 2.7-.2 4 0 1.3.2 2.6.7 3.7 1.4s2.1 1.6 2.9 2.6c.8 1 1.3 2.2 1.6 3.4.2.8.2 1.7.2 2.5h.5c1.8 0 3.5.7 4.8 2 1.3 1.3 2 3 2 4.8 0 1.8-.7 3.5-2 4.8-1.4 1.3-3.1 2.1-5 2.1z"/>
    <path d="M22.2 18.8c-.3 0-.5-.1-.7-.3l-4.3-4.3-4.3 4.3c-.4.4-1 .4-1.4 0s-.4-1 0-1.4l5-5c.4-.4 1-.4 1.4 0l5 5c.4.4.4 1 0 1.4-.2.2-.5.3-.7.3z"/>
    <path d="M17.2 28.8c-.6 0-1-.4-1-1v-15c0-.6.4-1 1-1s1 .4 1 1v15c0 .5-.5 1-1 1z"/>
</symbol><symbol id="icon-copy" viewBox="0 0 28 28">
    <path d="M23.2 28H11.8c-.5 0-.9-.1-1.2-.3-.3-.1-.5-.3-.7-.5l-.2.1-.4-.9-.4-.9.2-.1v-.2-11.4-2c0-.5.1-.9.3-1.2.3-.6.7-1 1.3-1.3.3-.2.7-.2 1.2-.3h13.6l.1-.2.9.4.9.4-.1.2c.2.2.4.4.5.7.2.3.2.7.3 1.2v13.4c0 .5-.1.9-.3 1.2-.3.6-.7 1-1.3 1.3-.3.2-.7.2-1.2.3-.6.1-1.2.1-2.1.1zm-12.1-2.5c.1.2.2.3.4.4 0 0 .1 0 .4.1H24.9c.3 0 .4-.1.4-.1.2-.1.3-.2.4-.4 0 0 0-.1.1-.4V13.9v-1.8c0-.3-.1-.4-.1-.5-.1-.2-.2-.3-.4-.4 0 0-.1 0-.4-.1H11.9c-.3 0-.4.1-.4.1-.2.1-.3.3-.4.4 0 0 0 .1-.1.4V25c.1.4.1.4.1.5z"/>
    <path d="M1 4.8V2.9c0-.4.1-.7.2-.8.2-.4.5-.7.9-.9.1-.1.4-.1.8-.2H16.1c.4 0 .7.1.8.2l.5-.9-.5.9c.4.2.7.5.9.9.1.2.1.4.2.8V16.1c0 .4-.1.7-.2.8-.2.4-.5.7-.9.9-.2.1-.4.1-.8.2H2.9c-.4 0-.7-.1-.8-.2-.4-.2-.7-.5-.9-.9l-.9.5.9-.5c-.1-.2-.1-.4-.2-.8V4.8z" fill="#fff"/>
    <path d="M14.2 19H2.8c-.5 0-.9-.1-1.2-.3-.3-.1-.5-.3-.7-.5l-.2.1-.4-.9-.4-.9.2-.1v-.2V4.8v-2c0-.5.1-.9.3-1.2.3-.6.7-1 1.3-1.3.2-.1.6-.2 1.1-.3h13.6l.1-.2.9.4.9.4-.1.2c.2.2.4.4.5.7.1.5.2.8.3 1.3v13.4c0 .5-.1.9-.3 1.2-.3.6-.7 1-1.3 1.3-.3.2-.7.2-1.2.3h-2zM2.1 16.5c.1.2.2.3.4.4 0 0 .1 0 .4.1H15.9c.3 0 .4-.1.4-.1.2-.1.3-.2.4-.4 0 0 0-.1.1-.4V4.8 3c0-.3-.1-.4-.1-.5-.1-.2-.2-.3-.4-.4 0 0-.1 0-.4-.1H3c-.3 0-.4.1-.4.1-.2.1-.4.3-.5.4 0 0 0 .1-.1.4V15.9c.1.5.1.6.1.6z"/>
</symbol><symbol id="icon-doc-plus" viewBox="0 0 20 20">
    <path d="M17 7h-4c-.5 0-1-.2-1.4-.6S11 5.5 11 5V1c0-.6.4-1 1-1s1 .4 1 1v4h4c.6 0 1 .4 1 1s-.4 1-1 1z"/>
    <path d="M15 20H5c-.8 0-1.6-.3-2.1-.9-.6-.5-.9-1.3-.9-2.1V3c0-.8.3-1.6.9-2.1C3.4.3 4.2 0 5 0h7c.3 0 .5.1.7.3l5 5c.2.2.3.4.3.7v11c0 .8-.3 1.6-.9 2.1s-1.3.9-2.1.9zM5 2c-.3 0-.5.1-.7.3-.2.2-.3.4-.3.7v14c0 .3.1.5.3.7.2.2.4.3.7.3h10c.3 0 .5-.1.7-.3s.3-.4.3-.7V6.4L11.6 2H5z"/>
    <path d="M10 16c-.6 0-1-.4-1-1V9c0-.6.4-1 1-1s1 .4 1 1v6c0 .6-.4 1-1 1z"/>
    <path d="M13 13H7c-.6 0-1-.4-1-1s.4-1 1-1h6c.6 0 1 .4 1 1s-.4 1-1 1z"/>
</symbol><symbol id="icon-email" viewBox="0 0 512 512">
    <path d="M499.6 407.5c-10.1 12.2-25.1 19.2-41 19.2H53.3c-15.8 0-30.8-7-41-19.2l195.6-163 20.3 13.9c16.7 11.5 38.8 11.5 55.5 0l20.3-13.9 195.6 163z" fill="#1e88e5"/>
    <path d="M502.6 108.6L304 244.5l-20.3 13.9c-16.7 11.5-38.8 11.5-55.5 0L208 244.5 9.4 108.4c10-14.4 26.4-23 43.9-23h405.3c17.7-.2 34.2 8.6 44 23.2z" fill="#64b5f6"/>
    <g fill="#2196f3">
        <path d="M208 244.5l-195.6 163C4.4 397.9 0 385.8 0 373.3V138.7c-.1-10.8 3.2-21.4 9.4-30.3L208 244.5z"/>
        <path d="M512 138.7v234.7c0 12.5-4.4 24.6-12.4 34.1L304 244.5l198.6-135.9c6.2 8.8 9.4 19.3 9.4 30.1z"/>
    </g>
</symbol><symbol id="icon-eye-hide" viewBox="0 0 490.034 490.034">
    <path d="M435.667 54.311c-7-7.1-18.4-7-25.5 0l-64 64c-79.3-36-163.9-27.2-244.6 25.5-60.1 39.2-96.6 88.5-98.1 90.6-4.8 6.6-4.6 15.6.5 22 34.2 42 70 74.7 106.6 97.5l-56.3 56.3c-7 7-7 18.4 0 25.5 3.5 3.5 8.1 5.3 12.7 5.3s9.2-1.8 12.7-5.3l356-355.9c7-7 7-18.4 0-25.5zm-235.2 209.7c-2.6-5.9-3.9-12.3-3.9-19 0-12.9 5-25.1 14.2-34.3 14.4-14.4 35.7-17.8 53.3-10.3l-63.6 63.6zm90.2-90.1c-32.7-21-76.8-17.2-105.3 11.3-16 16-24.7 37.2-24.7 59.7 0 16.4 4.7 32.1 13.4 45.6l-37.1 37.1c-32.5-18.8-64.5-46.6-95.6-82.9 13.3-15.6 41.4-45.7 79.9-70.8 66.6-43.4 132.9-52.8 197.5-28.1l-28.1 28.1z"/>
    <path d="M486.067 233.611c-24.7-30.4-50.3-56-76.3-76.3-7.9-6.1-19.2-4.7-25.4 3.1-6.1 7.8-4.7 19.1 3.1 25.3 20.6 16.1 41.2 36.1 61.2 59.5-11.8 13.8-34.8 38.6-66 61.3-60.1 43.7-120.8 59.5-180.3 46.9-9.7-2.1-19.3 4.2-21.3 13.9-2.1 9.7 4.2 19.3 13.9 21.3 15.5 3.3 31.1 4.9 46.8 4.9 23.6 0 47.4-3.7 71.1-11.1 31.1-9.7 62-25.7 91.9-47.5 50.4-36.9 80.5-77.6 81.8-79.3 4.8-6.6 4.6-15.6-.5-22z"/>
</symbol><symbol id="icon-eye" viewBox="0 0 489.934 489.934">
    <path d="M485.967 233.617c-74-91-153.9-137.2-237.7-137.2-33.2 0-66.8 7.4-100 21.9-26.1 11.5-52 27.4-76.9 47.3-42.1 33.7-66.9 67.3-67.9 68.7-4.8 6.6-4.6 15.6.5 22 73.9 91.1 153.9 137.2 237.7 137.2 33.2 0 66.8-7.4 100-21.9 26.1-11.5 52-27.4 76.9-47.3 42.1-33.7 66.9-67.3 67.9-68.7 4.8-6.6 4.6-15.6-.5-22zm-90.7 63.2c-34.8 27.7-89.6 60.7-153.6 60.7-69.1 0-136.5-37.9-200.5-112.7 10.1-11.9 28.6-31.8 53.4-51.6 34.8-27.7 89.6-60.7 153.6-60.7 69.1 0 136.5 37.9 200.5 112.7-10.1 11.9-28.6 31.9-53.4 51.6z"/>
    <path d="M311.267 227.017c-9.9 0-18 8.1-18 18 0 26.7-21.7 48.4-48.4 48.4s-48.4-21.7-48.4-48.4 21.7-48.4 48.4-48.4c9.9 0 18-8.1 18-18s-8.1-18-18-18c-46.6 0-84.4 37.9-84.4 84.4s37.8 84.4 84.4 84.4c46.6 0 84.4-37.9 84.4-84.4 0-9.9-8.1-18-18-18z"/>
</symbol><symbol id="icon-fb-messenger" viewBox="0 0 22 22">
    <path d="M11 0c6.1 0 11 4.9 11 11s-4.9 11-11 11c-2.2 0-4.3-.7-6.1-1.8L.7 21.6l1.4-4.1C.8 15.6 0 13.4 0 11 0 4.9 4.9 0 11 0zm5.4 8.1c.2-.1.4-.1.5.1.1.2.1.4 0 .6l-4.5 5.1c-.1.2-.4.2-.5 0l-2.4-2.4-3.9 2.4c-.2.1-.4.1-.5 0-.1-.2-.1-.4 0-.6l4.5-5.1c.1-.2.4-.2.5-.1l2.4 2.4 3.9-2.4z" fill-rule="evenodd" clip-rule="evenodd"/>
</symbol><symbol id="icon-fb" viewBox="0 0 10 20">
    <path d="M0 10.54h2.417v8.984H6.61V10.58h2.692l.464-3.814H6.61V4.764c0-.603.325-.91.966-.91H9.71V.302L6.886.303c-.018 0-.057-.002-.115-.002-.436 0-1.953.085-3.15 1.187-1.328 1.221-1.143 2.684-1.1 2.937v2.341H0v3.773z"/>
</symbol><symbol id="icon-gift" viewBox="0 0 32 32">
    <path d="M29.3 17H2.7C1.2 17 0 15.8 0 14.3V11c0-1.5 1.2-2.7 2.7-2.7h26.7c1.5 0 2.7 1.2 2.7 2.7v3.3c-.1 1.5-1.3 2.7-2.8 2.7zM2.7 10.3c-.4 0-.7.3-.7.7v3.3c0 .4.3.7.7.7h26.7c.4 0 .7-.3.7-.7V11c0-.4-.3-.7-.7-.7H2.7z"/>
    <path d="M16 32c-.6 0-1-.4-1-1V9.3c0-.6.4-1 1-1s1 .4 1 1V31c0 .6-.4 1-1 1z"/>
    <path d="M24.3 32H7.7c-1.1 0-2.3-.5-3.1-1.3-.8-.8-1.3-1.9-1.3-3.1V16c0-.6.4-1 1-1s1 .4 1 1v11.7c0 .6.2 1.2.7 1.6.4.4 1 .7 1.6.7h16.7c.6 0 1.2-.2 1.7-.7.4-.4.7-1 .7-1.6V16c0-.6.4-1 1-1s1 .4 1 1v11.7c0 1.2-.5 2.2-1.3 3.1S25.5 32 24.3 32z"/>
    <path d="M23.5 10.3c-.6 0-1-.4-1-1s.4-1 1-1c.8 0 1.6-.3 2.2-.9.6-.6.9-1.4.9-2.2s-.3-1.6-.9-2.2c-.6-.7-1.4-1-2.3-1-1.3 0-2.6.7-3.7 1.9-1.2 1.4-2.2 3.3-2.8 5.7-.1.4-.5.8-1 .8s-.9-.3-1-.8c-.6-2.3-1.5-4.3-2.8-5.7C11.1 2.6 9.9 2 8.5 2c-.8 0-1.6.3-2.2.9-.6.6-1 1.4-1 2.3s.3 1.6.9 2.2 1.4.9 2.2.9c.6 0 1 .4 1 1s-.4 1-1 1c-1.4 0-2.7-.5-3.7-1.5S3.3 6.5 3.3 5.2s.5-2.7 1.5-3.7S7.1 0 8.6 0c1.9 0 3.6.9 5.2 2.6.9 1 1.6 2.2 2.2 3.6.6-1.4 1.4-2.6 2.2-3.6C19.8.9 21.5 0 23.4 0h.1c1.4 0 2.7.5 3.6 1.5 1 1 1.5 2.3 1.5 3.7s-.5 2.7-1.5 3.7c-.9.9-2.2 1.4-3.6 1.4z"/>
</symbol><symbol id="icon-google" viewBox="0 0 48 48">
    <path fill="#FFC107" d="M43.611 20.083H42V20H24v8h11.303c-1.649 4.657-6.08 8-11.303 8-6.627 0-12-5.373-12-12s5.373-12 12-12c3.059 0 5.842 1.154 7.961 3.039l5.657-5.657C34.046 6.053 29.268 4 24 4 12.955 4 4 12.955 4 24s8.955 20 20 20 20-8.955 20-20c0-1.341-.138-2.65-.389-3.917z"/>
    <path fill="#FF3D00" d="M6.306 14.691l6.571 4.819C14.655 15.108 18.961 12 24 12c3.059 0 5.842 1.154 7.961 3.039l5.657-5.657C34.046 6.053 29.268 4 24 4 16.318 4 9.656 8.337 6.306 14.691z"/>
    <path fill="#4CAF50" d="M24 44c5.166 0 9.86-1.977 13.409-5.192l-6.19-5.238A11.91 11.91 0 0124 36c-5.202 0-9.619-3.317-11.283-7.946l-6.522 5.025C9.505 39.556 16.227 44 24 44z"/>
    <path fill="#1976D2" d="M43.611 20.083H42V20H24v8h11.303a12.04 12.04 0 01-4.087 5.571l.003-.002 6.19 5.238C36.971 39.205 44 34 44 24c0-1.341-.138-2.65-.389-3.917z"/>
</symbol><symbol id="icon-image" viewBox="0 0 18 18">
    <path d="M12 6c-.6 0-1-.4-1-1s.4-1 1-1 1 .4 1 1-.4 1-1 1z"/>
    <path d="M14 18H4c-2.2 0-4-1.8-4-4V4c0-2.2 1.8-4 4-4h10c2.2 0 4 1.8 4 4v10c0 2.2-1.8 4-4 4zM4 2c-1.1 0-2 .9-2 2v10c0 1.1.9 2 2 2h10c1.1 0 2-.9 2-2V4c0-1.1-.9-2-2-2H4z"/>
    <path d="M13 14c-.3 0-.5-.1-.7-.3l-5-5c-.2-.2-.5-.4-.8-.4s-.6.2-.8.4l-4 4c-.4.4-1 .4-1.4 0s-.4-1 0-1.4l4-4C5.6 6 7.4 6 8.7 7.3l5 5c.4.4.4 1 0 1.4-.2.2-.4.3-.7.3z"/>
    <path d="M17 13c-.3 0-.5-.1-.7-.3l-2-2c-.2-.2-.5-.4-.8-.4s-.6.2-.8.4l-1 1c-.4.4-1 .4-1.4 0s-.4-1 0-1.4l1-1c1.3-1.3 3.1-1.3 4.4 0l2 2c.4.4.4 1 0 1.4-.2.2-.4.3-.7.3z"/>
</symbol><symbol id="icon-infinity" viewBox="0 0 27.1 27.1">
    <path d="M6.8 6.9c.9 0 1.7.1 2.4.4.7.3 1.4.6 2 1 .6.4 1.1.8 1.5 1.2l.4.4.4.4c.1-.1.2-.3.4-.4l.4-.4c.7-.6 1.5-1.2 2.5-1.8 1-.5 2.2-.8 3.5-.8 1.2 0 2.4.3 3.4.9 1 .6 1.9 1.4 2.5 2.4.6 1 .9 2.1.9 3.3 0 .9-.2 1.8-.5 2.6s-.8 1.5-1.5 2.1c-.6.6-1.3 1.1-2.2 1.4-.8.3-1.7.5-2.6.5-.9 0-1.7-.1-2.4-.4-.7-.2-1.4-.6-2-.9-.6-.4-1.1-.8-1.5-1.2-.2-.2-.4-.3-.5-.5-.1-.1-.2-.3-.4-.4-.1.2-.3.3-.4.4l-.4.4c-.4.4-.9.8-1.5 1.2-.6.4-1.2.7-2 .9-.7.3-1.5.4-2.4.4-1.2 0-2.4-.3-3.4-.9-1-.6-1.8-1.4-2.5-2.4-.6-1-.9-2.1-.9-3.3 0-.9.2-1.8.5-2.6.4-.6.9-1.3 1.5-1.9.6-.6 1.3-1.1 2.2-1.4.8-.4 1.6-.6 2.6-.6zM4 13.5c0 .5.1.9.4 1.4.3.4.6.7 1 1 .4.2.9.4 1.4.4.6 0 1.2-.1 1.7-.4.5-.3 1-.6 1.5-1 .3-.2.5-.5.7-.7.2-.2.3-.4.4-.6-.1-.2-.3-.4-.5-.6-.2-.3-.4-.5-.6-.6-.4-.4-.9-.7-1.4-1-.6-.4-1.2-.5-1.8-.5-.5 0-1 .1-1.4.4-.4.2-.8.6-1 1-.3.3-.4.8-.4 1.2zm19.1 0c0-.5-.1-.9-.4-1.3-.2-.4-.6-.7-1-1-.4-.2-.9-.4-1.4-.4-.4 0-.8.1-1.2.2-.4.1-.7.3-1.1.5-.3.2-.6.5-.9.7l-.6.6c-.2.2-.4.4-.5.6.1.2.3.4.5.6l.6.6c.4.4.9.7 1.4 1 .5.3 1.1.4 1.7.4.5 0 1-.1 1.4-.4.4-.2.7-.6 1-1 .4-.1.5-.6.5-1.1z"/>
</symbol><symbol id="icon-info" viewBox="0 0 2 14">
    <path fill="#000" d="M0 4h2v10H0z"/>
    <circle cx="1" cy="1" r="1" fill="#000"/>
</symbol><symbol id="icon-instagram" viewBox="0 0 20 20">
    <path fill-rule="evenodd" clip-rule="evenodd" d="M10.825 0c1.909.003 2.283.017 3.215.06 1.058.048 1.78.216 2.413.461a4.872 4.872 0 011.76 1.147 4.873 4.873 0 011.148 1.76c.245.633.413 1.356.462 2.414.045.996.058 1.355.06 3.633v.931c-.002 2.278-.015 2.637-.06 3.633-.049 1.059-.217 1.781-.462 2.414a4.874 4.874 0 01-1.147 1.76 4.872 4.872 0 01-1.76 1.147c-.633.246-1.356.414-2.414.462-.964.044-1.331.057-3.419.06h-1.36c-2.087-.003-2.455-.016-3.418-.06-1.059-.048-1.781-.216-2.414-.462a4.873 4.873 0 01-1.76-1.147 4.873 4.873 0 01-1.147-1.76C.276 15.82.108 15.098.06 14.039c-.043-.931-.057-1.306-.06-3.215V9.057c.003-1.909.017-2.283.06-3.215.048-1.058.216-1.78.462-2.413A4.873 4.873 0 011.67 1.668 4.872 4.872 0 013.429.521C4.062.276 4.784.108 5.843.06 6.774.017 7.149.003 9.058 0h1.767zm4.546 3.44a1.224 1.224 0 100 2.448 1.224 1.224 0 000-2.447zM9.94 4.589a5.353 5.353 0 100 10.706 5.353 5.353 0 000-10.706zm0 8.794a3.441 3.441 0 110-6.882 3.441 3.441 0 010 6.882z" fill="#fff"/>
</symbol><symbol id="icon-logout" viewBox="0 0 512 512">
    <path d="M255.15 468.625H63.787c-11.737 0-21.262-9.526-21.262-21.262V64.638c0-11.737 9.526-21.262 21.262-21.262H255.15c11.758 0 21.262-9.504 21.262-21.262S266.908.85 255.15.85H63.787C28.619.85 0 29.47 0 64.638v382.724c0 35.168 28.619 63.787 63.787 63.787H255.15c11.758 0 21.262-9.504 21.262-21.262 0-11.758-9.504-21.262-21.262-21.262z"/>
    <path d="M505.664 240.861L376.388 113.286c-8.335-8.25-21.815-8.143-30.065.213s-8.165 21.815.213 30.065l92.385 91.173H191.362c-11.758 0-21.262 9.504-21.262 21.262 0 11.758 9.504 21.263 21.262 21.263h247.559l-92.385 91.173c-8.377 8.25-8.441 21.709-.213 30.065a21.255 21.255 0 0015.139 6.336c5.401 0 10.801-2.041 14.926-6.124l129.276-127.575A21.303 21.303 0 00512 255.998c0-5.696-2.275-11.118-6.336-15.137z"/>
</symbol><symbol id="icon-long-arrow" viewBox="0 0 101.2 12.7">
    <path d="M0 5.9h100v1H0z"/>
    <path d="M94.9 12.7l-.8-.7 5.7-5.6L94.1.7l.8-.7 6.3 6.4z"/>
</symbol><symbol id="icon-mail" viewBox="0 0 17.5 17.5">
    <path d="M11.4 8.8c0 1.5-1.2 2.6-2.6 2.6s-2.6-1.2-2.6-2.6 1.2-2.6 2.6-2.6c1.4-.1 2.6 1.1 2.6 2.6zM8.8 0C3.9 0 0 3.9 0 8.8s3.9 8.8 8.8 8.8c1.8 0 3.5-.5 4.9-1.5l-1.2-1.4c-3.2 2.1-7.6 1.1-9.6-2.1S1.8 5 5 2.9s7.6-1.1 9.6 2.1c1 1.6 1.3 3.5.9 5.3-.1.7-.7 1.2-1.3 1.1-.6 0-1.1-.6-1-1.2V8.8c0-2.4-2-4.4-4.4-4.4s-4.4 2-4.4 4.4c0 2.4 2 4.4 4.4 4.4 1.2 0 2.3-.5 3.2-1.3.5.8 1.3 1.2 2.2 1.3h.2c.6 0 1.3-.2 1.8-.6.5-.4.9-1 1.1-1.7 0-.1.1-.4.1-.4.1-.6.2-1.2.2-1.8-.1-4.8-4-8.7-8.8-8.7" fill="#ff9e00"/>
</symbol><symbol id="icon-players" viewBox="0 0 24.5 24.5">
    <path d="M8.5 12c-3.3 0-6-2.7-6-6s2.7-6 6-6 6 2.7 6 6-2.7 6-6 6zm0-10c-2.2 0-4 1.8-4 4s1.8 4 4 4 4-1.8 4-4-1.8-4-4-4z"/>
    <path d="M16 24.5c-.6 0-1-.4-1-1V21c0-1.1-.4-2.1-1.2-2.8-.7-.8-1.7-1.2-2.8-1.2H6c-1.1 0-2.1.4-2.8 1.2-.8.7-1.2 1.7-1.2 2.8v2.5c0 .6-.4 1-1 1s-1-.4-1-1V21c0-1.6.6-3.1 1.8-4.2C2.9 15.6 4.4 15 6 15h5c1.6 0 3.1.6 4.2 1.8 1.1 1.1 1.8 2.6 1.8 4.2v2.5c0 .6-.4 1-1 1z"/>
    <path d="M17.2 11.8c-.4 0-.9-.3-1-.8-.1-.5.2-1.1.7-1.2.9-.2 1.6-.7 2.2-1.4.6-.6.9-1.5.9-2.4s-.3-1.8-.8-2.5-1.3-1.1-2.2-1.4c-.5-.1-.9-.7-.7-1.2.1-.5.7-.9 1.2-.7 1.3.3 2.4 1.1 3.3 2.1C21.6 3.4 22 4.7 22 6s-.4 2.6-1.3 3.7c-.8 1-2 1.8-3.3 2.1h-.2z"/>
    <path d="M23.5 24.5c-.6 0-1-.4-1-1V21c0-.9-.3-1.7-.8-2.4s-1.3-1.2-2.2-1.4c-.5-.1-.9-.7-.7-1.2.1-.5.7-.9 1.2-.7 1.3.3 2.4 1.1 3.2 2.1.8 1 1.3 2.3 1.3 3.7v2.5c0 .5-.4.9-1 .9z"/>
</symbol><symbol id="icon-plus" viewBox="0 0 18 18">
    <path d="M17 7.7h-6.8V1c0-.3-.4-1-1.3-1-.7 0-1.2.7-1.2 1v6.8H1C.7 7.7 0 8.2 0 9c0 .8.7 1.3 1 1.3h6.8V17c0 .3.4 1 1.3 1 .8 0 1.3-.7 1.3-1v-6.8H17c.3 0 1-.4 1-1.3 0-.7-.7-1.2-1-1.2z"/>
</symbol><symbol id="icon-question" viewBox="0 0 10.5 10.5">
    <path d="M4.4 7.2c0-.7.1-1.2.2-1.5.1-.4.3-.7.5-.9.2-.2.5-.4.9-.6.2-.1.4-.3.5-.4.2-.2.3-.3.4-.5.1-.3.1-.5.1-.8 0-.3-.1-.6-.2-.8-.2-.2-.4-.4-.6-.5-.3-.1-.6-.2-.9-.2-.3 0-.6 0-.8.2-.3.1-.5.2-.7.5-.1.2-.2.5-.3.9H2.2c0-.5.2-1 .4-1.4.4-.4.7-.7 1.2-.9.4-.2.9-.3 1.5-.3s1.1.1 1.6.3c.4.2.8.5 1 .9.2.4.4.8.4 1.3 0 .4-.1.7-.2 1-.1.3-.3.6-.5.8-.2.2-.5.4-.8.6-.3.2-.5.3-.7.5-.2.2-.3.5-.4.7-.1.3-.1.6-.1 1v.1H4.4z"/>
    <path d="M4.5 10.3c.1.1.3.2.5.2.1 0 .3 0 .4-.1l.3-.3c0-.1.1-.2.1-.3 0-.2-.1-.4-.2-.5-.2-.2-.4-.3-.6-.3s-.4.1-.5.2c-.2.2-.3.3-.3.6s.1.3.3.5z"/>
</symbol><symbol id="icon-send" viewBox="0 0 24 24">
    <path d="M8.75 17.612v4.638a.751.751 0 001.354.444l2.713-3.692z"/>
    <path d="M23.685.139a.75.75 0 00-.782-.054l-22.5 11.75a.752.752 0 00.104 1.375l6.255 2.138 13.321-11.39L9.775 16.377l10.483 3.583a.753.753 0 00.984-.599l2.75-18.5a.751.751 0 00-.307-.722z"/>
</symbol><symbol id="icon-share" viewBox="0 0 20 20">
    <path d="M4 14c-2.2 0-4-1.8-4-4s1.8-4 4-4 4 1.8 4 4-1.8 4-4 4zm0-6c-1.1 0-2 .9-2 2s.9 2 2 2 2-.9 2-2-.9-2-2-2z"/>
    <path d="M16 8c-2.2 0-4-1.8-4-4s1.8-4 4-4 4 1.8 4 4-1.8 4-4 4zm0-6c-1.1 0-2 .9-2 2s.9 2 2 2 2-.9 2-2-.9-2-2-2z"/>
    <path d="M16 20c-2.2 0-4-1.8-4-4s1.8-4 4-4 4 1.8 4 4-1.8 4-4 4zm0-6c-1.1 0-2 .9-2 2s.9 2 2 2 2-.9 2-2-.9-2-2-2z"/>
    <path d="M6.7 9.7c-.4 0-.7-.2-.9-.5-.2-.5 0-1.1.4-1.4l6.6-3.4c.5-.3 1.1-.1 1.3.4s.1 1.1-.4 1.3L7.2 9.6c-.2.1-.3.1-.5.1z"/>
    <path d="M13.3 15.7c-.2 0-.3 0-.5-.1l-6.6-3.4c-.5-.3-.7-.9-.4-1.3.3-.5.9-.7 1.3-.4l6.6 3.4c.5.3.7.9.4 1.3-.1.3-.4.5-.8.5z"/>
</symbol><symbol id="icon-sliders" viewBox="0 0 16 16">
    <path fill="#f74f4f" d="M12 1h2v15h-2z"/>
    <path fill="#f74f4f" d="M2 1h2v15H2z"/>
    <circle cx="3" cy="3" r="2" fill="#fff"/>
    <path d="M3 6C1.3 6 0 4.7 0 3s1.3-3 3-3 3 1.3 3 3-1.3 3-3 3zm0-4c-.6 0-1 .4-1 1s.4 1 1 1 1-.4 1-1-.4-1-1-1z" fill="#f74f4f"/>
    <g>
        <circle cx="13" cy="10" r="2" fill="#fff"/>
        <path d="M13 13c-1.7 0-3-1.3-3-3s1.3-3 3-3 3 1.3 3 3-1.3 3-3 3zm0-4c-.6 0-1 .4-1 1s.4 1 1 1 1-.4 1-1-.4-1-1-1z" fill="#f74f4f"/>
    </g>
</symbol><symbol id="icon-telegram" viewBox="0 0 22 22">
    <path d="M20.1 1.6L.4 9.4c-.1 0-.2.1-.3.3-.1.1-.1.2-.1.4s.1.3.1.4c.1.1.2.2.4.2l4.9 1.5 2 6.2c0 .1.1.2.2.3.1.1.2.1.3.2h.4c.1 0 .2-.1.3-.2l2.9-2.7 5.5 4.1c.1.1.2.1.3.1h.3c.1 0 .2-.1.3-.2.1-.1.1-.2.2-.3L22 3.2c.1-.3 0-.5 0-.8-.1-.2-.2-.5-.4-.6-.2-.2-.4-.3-.7-.3-.3 0-.6 0-.8.1zM8.6 13.5L8 17.2l-1.4-5.1 13.8-9L8.6 13.5z" fill-rule="evenodd" clip-rule="evenodd"/>
</symbol><symbol id="icon-trash" viewBox="0 0 20 20">
    <path d="M18 6H2c-.6 0-1-.4-1-1s.4-1 1-1h16c.6 0 1 .4 1 1s-.4 1-1 1z"/>
    <path d="M8 16c-.6 0-1-.4-1-1V9c0-.6.4-1 1-1s1 .4 1 1v6c0 .6-.4 1-1 1z"/>
    <path d="M12 16c-.6 0-1-.4-1-1V9c0-.6.4-1 1-1s1 .4 1 1v6c0 .6-.4 1-1 1z"/>
    <path d="M14 20H6c-.8 0-1.6-.3-2.1-.9-.6-.5-.9-1.3-.9-2.1L2 5.1c0-.6.4-1.1.9-1.1.6 0 1.1.4 1.1.9l1 12c0 .3.1.6.3.8.2.2.4.3.7.3h8c.3 0 .5-.1.7-.3s.3-.4.3-.7l1-12.1c0-.5.5-1 1.1-.9.6 0 1 .5.9 1.1l-1 12c0 .7-.3 1.5-.9 2s-1.3.9-2.1.9z"/>
    <path d="M13 6c-.6 0-1-.4-1-1V2H8v3c0 .6-.4 1-1 1s-1-.4-1-1V2c0-.5.2-1 .6-1.4S7.5 0 8 0h4c.5 0 1 .2 1.4.6s.6.9.6 1.4v3c0 .6-.4 1-1 1z"/>
</symbol><symbol id="icon-viber" viewBox="0 0 22 22">
    <path d="M11 0C4.9 0 0 4.9 0 11c0 2.4.8 4.6 2.1 6.4L.7 21.5 5 20.2c1.7 1.1 3.8 1.8 6 1.8 6.1 0 11-4.9 11-11S17.1 0 11 0zm4.8 9.9c0-2-1.7-3.8-3.7-4h-.4c-.4 0-.5.3-.6.5 0 .2 0 .3.1.4.1.2.4.2.6.3h.2c1.9.4 2.5 1.1 2.8 2.9v.2c0 .2 0 .7.5.7h.1c.5-.1.4-.5.4-.7v-.3zm-4.2-4.8h-.2c-.2 0-.7-.1-.7-.5 0-.2.1-.6.6-.6H11.6c3.2.1 5.9 3 5.9 6.2v.1c0 .2 0 .5-.1.6-.1.1-.2.2-.4.2-.5 0-.5-.5-.6-.8v-.2c-.3-3-1.7-4.5-4.8-5zm4.8 9.1c-.1 0-.1-.1-.2-.2-.3-.3-.7-.5-1-.8L15 13c-.4-.3-.8-.5-1.2-.5-.5 0-.9.3-1.3.8-.2.2-.4.4-.6.4-.1 0-.3 0-.5-.1-1.4-.6-2.4-1.6-3-3-.3-.6-.2-1 .3-1.4.3-.2.8-.5.8-1.2 0-.8-1.8-3.1-2.5-3.4-.3-.1-.6-.1-1 0-.9.5-1.5.9-1.8 1.6-.3.6-.3 1.4 0 2.1.9 2.2 2.2 4.1 3.8 5.7 1.6 1.6 3.5 2.8 5.7 3.8.2.1.4.1.6.2h.2c1 0 2.3-1 2.7-2 .3-1-.3-1.5-.8-1.8zm-4.5-6.6c.5 0 1 .2 1.4.7.4.4.7 1 .7 1.5s-.2.7-.5.8h-.1c-.3 0-.5-.2-.5-.6-.1-.7-.4-1.1-1.1-1.2-.2 0-.4-.1-.5-.3-.1-.1-.1-.3 0-.5.1-.4.5-.4.6-.4z" fill-rule="evenodd" clip-rule="evenodd"/>
</symbol><symbol id="icon-vk" viewBox="0 0 26 16">
    <path d="M25.012 13.759a1.703 1.703 0 00-.085-.163c-.433-.782-1.262-1.743-2.486-2.881l-.026-.026-.013-.013-.013-.013h-.013c-.555-.53-.907-.887-1.054-1.07-.27-.347-.33-.699-.183-1.056.105-.269.495-.838 1.172-1.707.356-.46.638-.83.846-1.108 1.501-2 2.152-3.277 1.953-3.833l-.078-.13c-.052-.078-.187-.15-.403-.215-.218-.065-.495-.076-.834-.033l-3.748.026a.486.486 0 00-.26.007l-.17.04-.065.032-.052.039a.579.579 0 00-.143.137.895.895 0 00-.13.228 21.296 21.296 0 01-1.393 2.933 27.787 27.787 0 01-.885 1.402c-.27.395-.495.686-.677.873a4.73 4.73 0 01-.495.45c-.147.113-.26.16-.338.143a9.463 9.463 0 01-.222-.052.866.866 0 01-.292-.32 1.43 1.43 0 01-.15-.508 5.62 5.62 0 01-.046-.528 11.1 11.1 0 01.007-.626c.009-.27.013-.452.013-.547 0-.33.006-.69.02-1.076.013-.387.023-.693.032-.919.009-.226.013-.465.013-.717 0-.252-.015-.45-.046-.593a2.031 2.031 0 00-.136-.417.702.702 0 00-.267-.313 1.503 1.503 0 00-.436-.176c-.46-.105-1.045-.161-1.757-.17-1.614-.017-2.651.087-3.111.313a1.754 1.754 0 00-.495.391c-.156.192-.178.296-.065.313.52.078.89.265 1.106.56l.079.157c.06.113.121.313.182.6.06.287.1.604.117.951.043.635.043 1.178 0 1.63-.043.452-.084.804-.124 1.056-.039.252-.097.456-.175.613-.079.156-.13.252-.157.286a.224.224 0 01-.065.066.974.974 0 01-.351.065c-.122 0-.27-.061-.443-.183a3.124 3.124 0 01-.54-.502 6.71 6.71 0 01-.631-.893 15.593 15.593 0 01-.729-1.355l-.208-.379c-.13-.243-.308-.597-.534-1.062a20.498 20.498 0 01-.599-1.35.86.86 0 00-.312-.417l-.065-.039a.89.89 0 00-.208-.11 1.38 1.38 0 00-.3-.085L.978 1.51c-.365 0-.612.082-.742.247l-.052.079a.422.422 0 00-.04.208c0 .096.027.213.079.352A43.052 43.052 0 001.92 5.943C2.533 7.082 3.065 8 3.516 8.693c.45.696.91 1.352 1.38 1.97.468.616.778 1.012.93 1.186.152.174.271.304.358.39l.326.313c.208.21.514.459.917.75.404.291.85.578 1.34.86.491.283 1.062.513 1.713.691.65.179 1.284.25 1.9.216h1.497c.304-.026.534-.122.69-.287l.052-.065a.867.867 0 00.097-.241c.03-.109.046-.229.046-.359-.01-.373.02-.71.084-1.01.065-.3.14-.526.222-.678a1.666 1.666 0 01.501-.573.837.837 0 01.104-.046c.208-.07.453-.002.736.202.282.204.546.457.794.756.247.3.544.637.891 1.01.348.374.651.652.911.835l.26.156c.174.105.4.2.678.287.277.087.52.109.729.066l3.332-.053c.33 0 .586-.054.767-.163.183-.108.291-.228.326-.358.035-.13.037-.278.007-.444a1.64 1.64 0 00-.092-.345z" fill="#fff"/>
</symbol><symbol id="icon-whatsapp" viewBox="0 0 22 22">
    <path d="M11 0C4.9 0 0 4.9 0 11c0 2.4.8 4.6 2.1 6.4L.7 21.5 5 20.2c1.7 1.1 3.8 1.8 6 1.8 6.1 0 11-4.9 11-11S17.1 0 11 0zm6.4 15.5c-.3.7-1.3 1.4-2.2 1.6-.6.1-1.3.2-3.9-.8C8.1 15 6 11.7 5.8 11.5c-.2-.2-1.3-1.7-1.3-3.3 0-1.6.8-2.3 1.1-2.7.4-.3.8-.5 1.3-.5h.3c.3 0 .5 0 .7.5.3.6.9 2.2 1 2.4.1.2.2.4.1.7-.1.2-.2.3-.4.5l-.5.5c-.1.2-.3.4-.1.7.2.3.8 1.4 1.8 2.2 1.2 1.1 2.2 1.4 2.6 1.6.3.1.6.1.8-.1.2-.3.5-.7.9-1.1.2-.3.5-.3.8-.2.3.1 1.9.9 2.2 1 .3.2.5.2.6.4 0 0 0 .7-.3 1.4z"/>
</symbol><symbol id="icon-yandex" viewBox="0 0 24 24">
    <rect width="24" height="24" rx="12" fill="#FC3F1D"/>
    <path d="M13.691 19.212h2.507v-14.4h-3.646c-3.668 0-5.595 1.885-5.595 4.662 0 2.217 1.057 3.522 2.942 4.869l-3.273 4.869H9.34l3.647-5.45-1.264-.849c-1.534-1.036-2.28-1.844-2.28-3.584 0-1.533 1.078-2.57 3.13-2.57h1.118v12.453z" fill="#fff"/>
</symbol></svg>