<svg width="30" height="25" viewBox="0 0 30 25" fill="none" xmlns="http://www.w3.org/2000/svg">
<path d="M7.5 5.14239H8.06174L8.354 4.66267L10.2931 1.47972C10.4746 1.1818 10.7983 1 11.1471 1H15.0356H18.8526C19.2014 1 19.525 1.18178 19.7066 1.47967L21.646 4.66272L21.9383 5.14239H22.5H25C27.2091 5.14239 29 6.93325 29 9.14239V20C29 22.2091 27.2091 24 25 24H5C2.79086 24 1 22.2091 1 20V9.14239C1 6.93325 2.79086 5.14239 5 5.14239H7.5Z" stroke="#6477A2" stroke-width="2"/>
<path d="M20.0784 13.919C20.0784 16.7885 17.7906 19.0891 14.9996 19.0891C12.2087 19.0891 9.9209 16.7885 9.9209 13.919C9.9209 11.0496 12.2087 8.74902 14.9996 8.74902C17.7906 8.74902 20.0784 11.0496 20.0784 13.919Z" stroke="#6477A2" stroke-width="2"/>
</svg>
